<svg xmlns="http://www.w3.org/2000/svg" viewBox="0 0 64 64" fill="none">
  <rect width="64" height="64" rx="16" fill="#6941C6"/>
  <!-- Wrench -->
  <path d="M42 14c-4.4 0-8 3.6-8 8 0 1 .2 2 .6 2.9L20.5 39c-.9-.4-1.9-.6-2.9-.6-4.4 0-8 3.6-8 8s3.6 8 8 8 8-3.6 8-8c0-1-.2-2-.6-2.9L39.5 29c.9.4 1.9.6 2.9.6 4.4 0 8-3.6 8-8 0-1.2-.3-2.4-.8-3.4L44 23.8c-.5.1-1.2-.1-1.7-.6L39 20c-.5-.5-.7-1.2-.6-1.7l5.6-5.6C43.4 12.3 42.7 14 42 14z" fill="white" opacity="0.9"/>
  <circle cx="17.6" cy="46.4" r="3" fill="white" opacity="0.7"/>
  <circle cx="42" cy="22" r="3" fill="white" opacity="0.7"/>
</svg>
